<svg width="17" height="17" viewBox="0 -1 17 18" fill="none" xmlns="http://www.w3.org/2000/svg">
<path stroke="black" stroke-width="0.3" d="M10.7066 5.79347C12.5737 7.6625 12.5481 10.659 10.7179 12.4994C10.7145 12.5032 10.7104 12.5072 10.7066 12.511L8.60664 14.611C6.75445 16.4632 3.74105 16.4629 1.88914 14.611C0.0369529 12.7591 0.0369529 9.74534 1.88914 7.89347L3.0487 6.73391C3.3562 6.42641 3.88577 6.63078 3.90164 7.06534C3.92189 7.61916 4.0212 8.17556 4.20445 8.71288C4.26652 8.89481 4.22217 9.09606 4.08624 9.232L3.67727 9.64097C2.80145 10.5168 2.77399 11.9428 3.64117 12.8272C4.51692 13.7203 5.95636 13.7256 6.83883 12.8432L8.93883 10.7435C9.8198 9.8625 9.81611 8.43856 8.93883 7.56128C8.82317 7.44584 8.70667 7.35616 8.61567 7.2935C8.5513 7.24929 8.49815 7.19064 8.46046 7.12225C8.42277 7.05385 8.40158 6.9776 8.39858 6.89956C8.38621 6.56934 8.50321 6.22906 8.76414 5.96812L9.42208 5.31016C9.59461 5.13762 9.86527 5.11644 10.0653 5.25606C10.2944 5.41605 10.509 5.59588 10.7066 5.79347ZM15.1109 1.38903C13.259 -0.462908 10.2456 -0.463158 8.39336 1.38903L6.29336 3.48903C6.28961 3.49278 6.28555 3.49684 6.28211 3.50059C4.45192 5.34097 4.42627 8.3375 6.29336 10.2065C6.49095 10.4041 6.70554 10.5839 6.93464 10.7439C7.13471 10.8835 7.40539 10.8623 7.57789 10.6898L8.23583 10.0318C8.49677 9.77091 8.61377 9.43063 8.60139 9.10041C8.5984 9.02237 8.57721 8.94612 8.53951 8.87772C8.50182 8.80932 8.44867 8.75068 8.3843 8.70647C8.2933 8.64381 8.1768 8.55412 8.06114 8.43869C7.18386 7.56141 7.18017 6.13747 8.06114 5.2565L10.1611 3.15681C11.0436 2.27434 12.483 2.27966 13.3588 3.17275C14.226 4.05712 14.1986 5.48319 13.3227 6.359L12.9137 6.76797C12.7778 6.90391 12.7335 7.10516 12.7955 7.28709C12.9788 7.82441 13.0781 8.38081 13.0983 8.93462C13.1142 9.36919 13.6438 9.57356 13.9513 9.26606L15.1108 8.1065C16.9631 6.25466 16.9631 3.24091 15.1109 1.38903Z" fill="#D0EEFF"/>
</svg>
